#!OML:ASF H:\Dans Jumps\Project 1\Capture day 1\Session 1\subject.ASF
:FULLY-SPECIFIED
:DEGREES
288
root 0.576685 15.5619 -15.3007 18.3152 1.78562 -1.94911
lowerback 13.6647 -0.445432 -0.492688
upperback 5.17954 -0.5542 2.70024
thorax -2.17603 -0.300048 3.18445
lowerneck -17.7938 0.323365 -1.89392
upperneck 8.68107 0.933053 -0.387465
head 5.49352 0.357743 0.271342
rclavicle 2.5842e-015 -2.68359e-014
rhumerus -44.5918 -17.5412 -69.0426
rradius 24.1124
rwrist 31.9977
rhand -17.6248 -25.9309
rfingers 7.12502
rthumb 8.63242 -55.7344
lclavicle 2.5842e-015 -2.68359e-014
lhumerus -40.1754 2.80199 84.5635
lradius 14.7879
lwrist 7.58155
lhand -25.9286 -5.10659
lfingers 7.12502
lthumb 0.614661 24.8723
rfemur -54.3955 -4.37265 23.3949
rtibia 65.6576
rfoot -31.4787 -13.1404
rtoes 0.85738
lfemur -54.8885 6.37998 -21.4797
ltibia 64.8469
lfoot -26.4614 17.109
ltoes -10.7059
289
root 0.572866 15.5582 -15.2915 18.7343 1.91475 -1.94553
lowerback 13.809 -0.453619 -0.484405
upperback 5.10027 -0.559647 2.72143
thorax -2.33624 -0.300391 3.20619
lowerneck -17.8265 0.302205 -1.91237
upperneck 8.4591 0.903466 -0.356567
head 5.42826 0.347144 0.280753
rclavicle 6.75868e-015 1.55052e-014
rhumerus -44.5748 -17.4662 -69.1349
rradius 24.1177
rwrist 31.9693
rhand -17.6324 -25.9068
rfingers 7.12502
rthumb 8.62508 -55.7106
lclavicle 6.75868e-015 1.55052e-014
lhumerus -40.1559 2.82175 84.5399
lradius 14.8279
lwrist 7.61382
lhand -25.9246 -5.00504
lfingers 7.12502
lthumb 0.618536 24.9738
rfemur -54.8627 -4.30087 23.4273
rtibia 65.761
rfoot -31.6152 -13.3021
rtoes 0.781992
lfemur -55.3741 6.23776 -21.4701
ltibia 64.9428
lfoot -26.5042 17.3189
ltoes -10.5821
290
root 0.568859 15.5549 -15.281 19.1607 2.05112 -1.94201
lowerback 13.9564 -0.46461 -0.474862
upperback 5.01619 -0.568263 2.74534
thorax -2.50297 -0.302178 3.23081
lowerneck -17.864 0.281897 -1.93152
upperneck 8.23988 0.875628 -0.326974
head 5.36471 0.337208 0.29006
rclavicle 5.36719e-015 -6.95746e-015
rhumerus -44.5474 -17.3793 -69.2293
rradius 24.1176
rwrist 31.9218
rhand -17.6346 -25.8899
rfingers 7.12502
rthumb 8.623 -55.6938
lclavicle 5.36719e-015 -6.95746e-015
lhumerus -40.1273 2.86192 84.5028
lradius 14.853
lwrist 7.62587
lhand -25.992 -4.99477
lfingers 7.12502
lthumb 0.553474 24.9843
rfemur -55.3292 -4.22273 23.4583
rtibia 65.8592
rfoot -31.7404 -13.4735
rtoes 0.717605
lfemur -55.8612 6.08525 -21.4557
ltibia 65.0324
lfoot -26.5399 17.542
ltoes -10.5027
291
root 0.564753 15.5517 -15.2693 19.5949 2.19622 -1.9326
lowerback 14.1078 -0.478897 -0.464507
upperback 4.9245 -0.580775 2.76873
thorax -2.67967 -0.305676 3.25534
lowerneck -17.9038 0.264112 -1.94025
upperneck 8.02946 0.850381 -0.308595
head 5.30443 0.327911 0.294436
rclavicle 1.19271e-014 2.14687e-014
rhumerus -44.5184 -17.2921 -69.3182
rradius 24.1139
rwrist 31.8684
rhand -17.6248 -25.8798
rfingers 7.12502
rthumb 8.63245 -55.6833
lclavicle 1.19271e-014 2.14687e-014
lhumerus -40.096 2.91296 84.4535
lradius 14.8665
lwrist 7.63233
lhand -26.0763 -5.02787
lfingers 7.12502
lthumb 0.472083 24.9514
rfemur -55.7981 -4.14193 23.4815
rtibia 65.9551
rfoot -31.8539 -13.6433
rtoes 0.687579
lfemur -56.3498 5.91623 -21.4397
ltibia 65.1171
lfoot -26.5783 17.7638
ltoes -10.4376
292
root 0.560549 15.5484 -15.2563 20.0351 2.3455 -1.91718
lowerback 14.2666 -0.494876 -0.455645
upperback 4.8254 -0.595365 2.79138
thorax -2.86808 -0.309979 3.28072
lowerneck -17.9666 0.246904 -1.94393
upperneck 7.84526 0.82637 -0.296389
head 5.25618 0.318604 0.296299
rclavicle 7.7526e-015 2.78299e-015
rhumerus -44.4814 -17.2044 -69.4035
rradius 24.103
rwrist 31.8143
rhand -17.6003 -25.8794
rfingers 7.12502
rthumb 8.6561 -55.6819
lclavicle 7.7526e-015 2.78299e-015
lhumerus -40.0608 2.96635 84.3979
lradius 14.8688
lwrist 7.64595
lhand -26.1697 -5.10524
lfingers 7.12502
lthumb 0.381841 24.8742
rfemur -56.2689 -4.05374 23.4947
rtibia 66.0506
rfoot -31.9549 -13.8106
rtoes 0.674753
lfemur -56.8391 5.73324 -21.4225
ltibia 65.1984
lfoot -26.6143 17.9917
ltoes -10.3977
293
root 0.556308 15.5449 -15.2419 20.4818 2.49689 -1.89254
lowerback 14.4337 -0.511421 -0.449874
upperback 4.71512 -0.610778 2.81145
thorax -3.07274 -0.314369 3.30579
lowerneck -18.0424 0.22969 -1.94388
upperneck 7.68628 0.802388 -0.286679
head 5.21801 0.308964 0.296877
rclavicle -3.97569e-015 3.97569e-015
rhumerus -44.445 -17.1255 -69.4769
rradius 24.0824
rwrist 31.7741
rhand -17.5675 -25.8787
rfingers 7.12502
rthumb 8.6877 -55.6799
lclavicle -3.97569e-015 3.97569e-015
lhumerus -40.0302 3.00578 84.3441
lradius 14.8667
lwrist 7.67895
lhand -26.2609 -5.19178
lfingers 7.12502
lthumb 0.293717 24.7878
rfemur -56.7433 -3.95888 23.4939
rtibia 66.1482
rfoot -32.0472 -13.9732
rtoes 0.68152
lfemur -57.3275 5.53506 -21.4065
ltibia 65.2778
lfoot -26.6564 18.2114
ltoes -10.3488
